<svg xmlns="http://www.w3.org/2000/svg" viewBox="0 0 48 48" fill="#27ae60"><g fill="none" stroke="#c67305" stroke-width="2" stroke-linecap="round" stroke-linejoin="round"><path d="M31 33.164L31.162 32.691" transform="matrix(1.22191 0 0 1.23077 -5.326 -4.923)"/><path stroke-dasharray="1.0658,2.1317" d="M31.852 30.674L35.647 19.581" transform="matrix(1.22191 0 0 1.23077 -5.326 -4.923)"/><path d="M35.992 18.572L36.154 18.1 36.308 18.576" transform="matrix(1.22191 0 0 1.23077 -5.326 -4.923)"/><path stroke-dasharray="1.0589,2.1178" d="M36.956 20.592L40.522 31.68" transform="matrix(1.22191 0 0 1.23077 -5.326 -4.923)"/><path d="M40.847 32.688L41 33.164" transform="matrix(1.22191 0 0 1.23077 -5.326 -4.923)"/></g><g fill="none" stroke="#c67305" stroke-width="2" stroke-linecap="round" stroke-linejoin="round"><path d="M7 33.164L7.162 32.691" transform="matrix(1.22191 0 0 1.23077 -5.326 -4.923)"/><path stroke-dasharray="1.0658,2.1317" d="M7.852 30.674L11.647 19.581" transform="matrix(1.22191 0 0 1.23077 -5.326 -4.923)"/><path d="M11.992 18.572L12.154 18.1 12.308 18.576" transform="matrix(1.22191 0 0 1.23077 -5.326 -4.923)"/><path stroke-dasharray="1.0589,2.1178" d="M12.956 20.592L16.522 31.68" transform="matrix(1.22191 0 0 1.23077 -5.326 -4.923)"/><path d="M16.847 32.688L17 33.164" transform="matrix(1.22191 0 0 1.23077 -5.326 -4.923)"/></g><path d="M24 12.164c5 0 8 4 12 4 0 0 3 0 3-3 0-2-2-2-2-2 0 0-2 0-2 2M24 12.164c-5 0-8 4-12 4 0 0-3 0-3-3 0-2 2-2 2-2 0 0 2 0 2 2" stroke-miterlimit="10" fill="none" stroke="#c67305" stroke-width="2" stroke-linecap="round" stroke-linejoin="round" transform="matrix(1.22191 0 0 1.23077 -5.326 -4.923)"/><path d="M22 7.164C22 6.06 24 4 24 4c0 0 2 2.06 2 3.164 0 1.104-.896 2-2 2-1.104 0-2-.895-2-2zM30 42c0-1.104-.896-2-2-2l-8 0c-1.104 0-2 .896-2 2l0 1 12 0 0-1z" fill="#c67305" transform="matrix(1.22191 0 0 1.23077 -5.326 -4.923)"/><g transform="matrix(1.22191 0 0 1.23077 -5.326 -4.923)" fill="#ffc107"><path d="M30 34c0 0 1 4 6 4 5 0 6-4 6-4l-12 0zM6 34c0 0 1 4 6 4 5 0 6-4 6-4L6 34zM23 13.164H25V40H23z"/><circle r="3" cy="12.164" cx="24"/><path d="m 25,35 -2,0 c 0,0 0,5 -3,5 -3,0 11,0 8,0 -3,0 -3,-5 -3,-5 z"/></g></svg>